# xmcd
#
# Track frame offsets: 
#        150
#        13308
#        32725
#        50819
#        74380
#        91858
#        111179
#        127653
#        145906
#        163694
#        181888
#        202231
#        222195
#        242896
#        260446
#        277680
#        295659
#        315131
#
# Disc length: 4409 seconds
#
# Revision: 0
# Processed by: cddbd v1.4PL0 Copyright (c) Steve Scherf et al.
# Submitted via: ExactAudioCopy v0.95a3
#
DISCID=04113712
DTITLE=Various Artist - The Power Of Love 3
DYEAR=2003
DGENRE=Other
TTITLE0=Trade Mark-I'll Be The One
TTITLE1=Marich Crazy-Hero
TTITLE2=Lanren Christy-The Colour of Night
TTITLE3=Selenoa-Dreaming Of You
TTITLE4=Babro Strisand-Woman in Love
TTITLE5=Vanessa Williams-Colors Of The Wind
TTITLE6=Take That-How Deep is You Love
TTITLE7=Boyzone-Words
TTITLE8=Wet Wet Wet-Love Is All Around
TTITLE9=Traule Mark-Only Love
TTITLE10=Whitney Houston-I'll Always Love You
TTITLE11=Karyn White-Super Woman
TTITLE12=Destiny's Child-Brown Eyes
TTITLE13=Air Supply-All Out Of Love
TTITLE14=Micha Learn To Rosk-Pain My Love
TTITLE15=Brithey Spear-From The Botton Of My Broken Heart
TTITLE16=All 4 One-I Swear
TTITLE17=Backstreet Boys-I Want It That Way
EXTD=
EXTT0=
EXTT1=
EXTT2=
EXTT3=
EXTT4=
EXTT5=
EXTT6=
EXTT7=
EXTT8=
EXTT9=
EXTT10=
EXTT11=
EXTT12=
EXTT13=
EXTT14=
EXTT15=
EXTT16=
EXTT17=
PLAYORDER=
